<svg xmlns="http://www.w3.org/2000/svg" viewBox="0 0 200 200">
  <path d="M600 200v-48.66c-18.52 1.31-88.93 5.88-127.41 2.75C422.22 150 372.68 139 322 139.1c-26.46 0-52.23 3.9-78.5 5.79-24.05 1.74-48.77-.31-72.77-2.1-22.1-1.65-40.22-5.47-62.73-5.74-20.78-.26-41 4-61.08 6.46-38.56 4.68-78 3.28-116.76-2.56-48.55-7.31-93.87-10-142.71-3.36-43.9 5.95-83.62 20.37-128 8.11-12.51-3.45-47-7.17-59.45-8.44V200z" fill="#ffe9a1"/>
  <path d="M600 184.85a154.85 154.85 0 0 0-16.32-3.32c-22.28-2.56-42.83-2.26-65.11-1.43-36.54 1.36-74.77 5.58-110.79.37-40.95-5.93-81.55-14.14-122.83-17.85-65.44-5.89-132.11 10-197.9 11-79 1.19-155.15-21.14-233.55-20.48-81.08.67-173.79 52.9-253.5 19.44V200H600zm-899.32.43l.59-.06z" fill="#f8d659"/>
</svg>